<svg xmlns="http://www.w3.org/2000/svg" width="15" height="15" viewBox="0 0 15 15">
    <g transform="translate(-321 -1385)">
        <rect data-name="사각형 18906" width="15" height="15" rx="4" transform="translate(321 1385)" style="fill:#86d556"/>
        <path data-name="패스 15042" d="M-2.432 0v-7.109H0a2.975 2.975 0 0 1 1.836.483 1.7 1.7 0 0 1 .63 1.44 1.535 1.535 0 0 1-.264.879 1.7 1.7 0 0 1-.771.605 1.569 1.569 0 0 1 .891.588 1.714 1.714 0 0 1 .315 1.038A1.893 1.893 0 0 1 2-.537 2.792 2.792 0 0 1 .161 0zM-1.2-3.208v2.222H.176a1.328 1.328 0 0 0 .908-.288 1.011 1.011 0 0 0 .327-.8 1.015 1.015 0 0 0-.289-.844 1.015 1.015 0 0 0-.844-.29zm0-.908H.015a1.4 1.4 0 0 0 .9-.261.9.9 0 0 0 .325-.74.907.907 0 0 0-.3-.762A1.516 1.516 0 0 0 0-6.113h-1.2z" transform="translate(328.432 1396.055)" style="fill:#fff"/>
    </g>
</svg>
