<svg xmlns="http://www.w3.org/2000/svg" width="15" height="15" viewBox="0 0 15 15">
    <g transform="translate(-348 -1403)">
        <rect data-name="사각형 18871" width="15" height="15" rx="4" transform="translate(348 1403)" style="fill:#ff6425"/>
        <path data-name="패스 15052" d="M-2.8-.71v-7.11h2.1a3.294 3.294 0 0 1 1.674.42A2.864 2.864 0 0 1 2.1-6.209a3.782 3.782 0 0 1 .4 1.768v.356a3.767 3.767 0 0 1-.4 1.778A2.829 2.829 0 0 1 .954-1.125 3.446 3.446 0 0 1-.752-.71zm1.235-6.114V-1.7h.806a1.855 1.855 0 0 0 1.494-.6 2.648 2.648 0 0 0 .53-1.746v-.4a2.717 2.717 0 0 0-.5-1.768A1.783 1.783 0 0 0-.7-6.824z" transform="translate(355.646 1414.769)" style="fill:#fff"/>
    </g>
</svg>
