<svg xmlns="http://www.w3.org/2000/svg" width="15" height="15" viewBox="0 0 15 15">
    <g transform="translate(-341 -1385)">
        <rect data-name="사각형 18869" width="15" height="15" rx="4" transform="translate(341 1385)" style="fill:#ff9d1f"/>
        <path data-name="패스 15035" d="M2.883-2.314a2.567 2.567 0 0 1-.84 1.774A2.863 2.863 0 0 1 .1.1a2.772 2.772 0 0 1-1.5-.4 2.644 2.644 0 0 1-1-1.145 4.132 4.132 0 0 1-.366-1.724v-.664A4.162 4.162 0 0 1-2.41-5.61a2.686 2.686 0 0 1 1.023-1.182 2.853 2.853 0 0 1 1.541-.415 2.748 2.748 0 0 1 1.895.637 2.663 2.663 0 0 1 .835 1.8H1.653a1.756 1.756 0 0 0-.447-1.106 1.477 1.477 0 0 0-1.052-.335 1.442 1.442 0 0 0-1.238.589 2.943 2.943 0 0 0-.442 1.728v.63A3.122 3.122 0 0 0-1.113-1.5 1.369 1.369 0 0 0 .1-.9a1.6 1.6 0 0 0 1.094-.327 1.706 1.706 0 0 0 .464-1.089z" transform="translate(348.441 1396)" style="fill:#fff"/>
    </g>
</svg>
